<svg width="734" height="245" viewBox="0 0 734 245" fill="none" xmlns="http://www.w3.org/2000/svg">
<path d="M326.486 190.212V170.626H334.326C335.768 170.626 336.968 170.84 337.931 171.267C338.894 171.694 339.619 172.287 340.103 173.046C340.587 173.798 340.829 174.665 340.829 175.647C340.829 176.412 340.679 177.085 340.369 177.665C340.065 178.239 339.644 178.711 339.106 179.08C338.579 179.444 337.974 179.702 337.292 179.855V180.046C338.037 180.078 338.734 180.289 339.387 180.677C340.04 181.066 340.578 181.612 340.984 182.313C341.391 183.008 341.594 183.837 341.594 184.799C341.594 185.838 341.337 186.766 340.819 187.582C340.311 188.391 339.556 189.033 338.555 189.504C337.553 189.976 336.319 190.212 334.853 190.212H326.486ZM330.628 186.827H334.001C335.158 186.827 336 186.606 336.527 186.167C337.055 185.72 337.321 185.128 337.321 184.388C337.321 183.846 337.19 183.368 336.929 182.953C336.668 182.539 336.295 182.214 335.811 181.978C335.332 181.742 334.761 181.624 334.098 181.624H330.628V186.827ZM330.628 178.822H333.696C334.263 178.822 334.766 178.723 335.206 178.526C335.651 178.322 336.005 178.035 336.261 177.665C336.522 177.295 336.653 176.852 336.653 176.336C336.653 175.628 336.401 175.057 335.893 174.624C335.4 174.19 334.688 173.974 333.774 173.974H330.628V178.822ZM348.528 170.626H353.169L357.63 179.061H357.824L362.29 170.626H366.926L359.784 183.288V190.212H355.67V183.288L348.528 170.626Z" fill="black"/>
<path d="M133.963 134.247L92.175 134.247L92.175 116.115L133.963 116.115L133.963 134.247Z" fill="black"/>
<path d="M92.1777 94.8748L92.1777 55.5016L111.422 55.5016L111.422 94.8748L92.1777 94.8748Z" fill="black"/>
<path d="M133.963 94.8748L92.175 94.8748L92.175 76.7424L133.963 76.7424L133.963 94.8748Z" fill="black"/>
<path d="M40.3027 134.247H82.0906V116.114H40.3027V134.247Z" fill="black"/>
<path d="M40.3027 94.874H82.0906V76.7416H40.3027V94.874Z" fill="black"/>
<path d="M40.3027 116.113L40.3027 76.7399L21.0583 76.7399L21.0583 116.113L40.3027 116.113Z" fill="black"/>
<path d="M133.963 116.117L133.963 76.7437L153.207 76.7437L153.207 116.117L133.963 116.117Z" fill="black"/>
<path d="M227.05 123.471C252.199 123.471 254.758 112.105 254.758 106.939V106.801H238.016C237.651 108.247 236.042 113.62 225.003 113.62H224.784C215.353 113.62 212.282 108.661 212.282 103.701V103.219C212.282 98.5348 215.279 94.0574 224.784 94.0574H225.003C236.188 94.0574 237.651 99.2925 238.016 100.739H254.758V100.532C254.758 95.5728 251.687 84.3447 227.123 84.3447H222.956C200.512 84.3447 195.613 94.7462 195.613 103.012V104.39C195.613 112.656 200.585 123.471 223.029 123.471H227.05Z" fill="black"/>
<path d="M291.137 123.471C315.409 123.471 319.284 112.863 319.284 104.321V103.081C319.284 94.6773 315.117 84.3447 291.137 84.3447H285.947C263.137 84.3447 257.727 94.5396 257.727 103.081V104.321C257.727 112.863 263.21 123.471 286.02 123.471H291.137ZM288.579 113.483C277.466 113.483 274.395 108.247 274.395 103.908V103.563C274.395 98.8792 277.466 94.1951 288.579 94.1951H288.652C299.618 94.1951 302.762 98.9481 302.762 103.563V103.908C302.762 108.247 299.691 113.483 288.579 113.483Z" fill="black"/>
<path d="M367.517 103.977C367.517 108.73 362.399 113.552 352.749 113.552H352.383C342.806 113.552 339.151 108.454 339.151 103.977V103.701C339.151 98.8792 342.002 94.1951 352.237 94.1951H352.603C362.253 94.1951 367.517 98.8792 367.517 103.701V103.977ZM367.517 71.1879V90.3376C365.689 88.8222 360.06 84.4825 347.777 84.4825H346.608C328.989 84.4825 322.482 93.0241 322.482 102.943V104.252C322.482 114.654 329.793 123.333 347.266 123.333H348.216C360.864 123.333 366.566 118.236 367.663 116.789V122.438H383.893V71.1879H367.517Z" fill="black"/>
<path d="M418.413 92.9552C426.674 92.9552 430.476 95.2973 431.573 99.2237H405.254C406.497 95.2973 410.152 92.9552 418.34 92.9552H418.413ZM447.803 109.35H431.719C431.5 110.245 429.745 114.103 418.925 114.103H418.852C409.86 114.103 405.912 111.209 404.961 106.87H448.022V104.321C448.022 95.2973 443.782 84.3447 420.68 84.3447H416.22C394.945 84.3447 388.951 93.5063 388.951 103.012V104.528C388.951 114.24 395.677 123.471 416.659 123.471H420.826C444.294 123.471 447.803 114.447 447.803 109.418V109.35Z" fill="black"/>
<path d="M455.928 71.1879V122.438H470.989C471.208 120.715 471.5 118.649 472.012 117.202C473.547 118.649 480.2 123.333 491.459 123.333H492.702C510.175 123.333 517.266 114.378 517.266 104.39V103.081C517.266 92.9552 511.052 84.4825 493.214 84.4825H491.898C480.127 84.4825 473.986 89.2355 472.231 90.5443V71.1879H455.928ZM472.231 103.632C472.231 98.8792 476.691 94.0574 486.415 94.0574H486.853C497.454 94.0574 500.597 98.8792 500.597 103.632V103.908C500.597 108.385 497.454 113.552 486.853 113.552H486.415C476.837 113.552 472.231 108.523 472.231 103.908V103.632Z" fill="black"/>
<path d="M557.338 105.974C557.338 110.383 551.708 114.791 543.008 114.791C537.452 114.791 535.844 112.587 535.844 110.589V110.521C535.844 108.385 537.598 107.696 541.765 107.076L557.338 104.803V105.974ZM557.776 117.34C558.361 120.853 560.847 122.438 563.99 122.438H577.223V112.38H575.103C573.421 112.38 573.056 111.623 573.056 110.521V96.3305C573.056 90.9576 571.594 84.3447 548.784 84.3447H544.763C522.83 84.3447 521.295 91.9908 521.295 96.8816V97.0194H536.429C536.648 95.7795 537.013 92.8863 546.737 92.8863H547.102C556.68 92.8863 557.338 94.5396 557.338 95.9172C557.338 97.0883 556.68 97.6393 554.852 97.846L536.867 99.4303C525.097 100.464 520.345 103.701 520.345 110.521V111.003C520.345 117.34 525.389 123.126 538.622 123.126H539.572C551.123 123.126 556.095 119.338 557.776 117.34Z" fill="black"/>
<path d="M607.183 123.471C628.896 123.471 633.137 117.547 633.137 110.727V110.314C633.137 102.875 629.335 99.017 611.204 98.6726L604.186 98.5348C597.387 98.3282 595.924 97.226 595.924 95.5728V95.435C595.924 93.5752 597.46 92.6797 605.282 92.6797H605.355C614.128 92.6797 614.86 95.0906 615.079 96.4683H631.674V95.9861C631.674 90.1999 626.922 84.3447 607.037 84.3447H604.113C582.473 84.3447 579.256 90.1999 579.256 95.9172V96.3305C579.256 101.772 583.35 107.559 600.457 107.903L607.476 108.041C615.152 108.247 616.102 109.35 616.102 111.278V111.416C616.102 113.207 615.006 114.929 605.94 114.929H605.794C596.29 114.929 595.705 111.278 595.705 109.901H578.89V110.314C578.89 115.067 581.23 123.471 604.186 123.471H607.183Z" fill="black"/>
<path d="M665.692 92.9552C673.953 92.9552 677.754 95.2973 678.851 99.2237H652.532C653.775 95.2973 657.43 92.9552 665.618 92.9552H665.692ZM695.081 109.35H678.997C678.778 110.245 677.023 114.103 666.203 114.103H666.13C657.138 114.103 653.19 111.209 652.24 106.87H695.3V104.321C695.3 95.2973 691.06 84.3447 667.958 84.3447H663.498C642.224 84.3447 636.229 93.5063 636.229 103.012V104.528C636.229 114.24 642.955 123.471 663.937 123.471H668.104C691.572 123.471 695.081 114.447 695.081 109.418V109.35Z" fill="black"/>
<g clip-path="url(#clip0_2939_262)">
<path d="M435.668 168.28C436.66 166.577 439.122 166.577 440.103 168.28L450.638 186.431C451.63 188.134 450.388 190.255 448.416 190.255H427.344C425.372 190.255 424.141 188.134 425.122 186.431L435.668 168.28Z" fill="black"/>
<path d="M429.299 156.195C430.258 154.502 430.258 152.415 429.299 150.712L420.659 135.516C419.689 133.813 417.27 133.813 416.301 135.516L387.385 186.421C386.415 188.124 387.624 190.256 389.564 190.256H406.833C408.761 190.256 410.537 189.212 411.496 187.52L429.288 156.195H429.299Z" fill="black"/>
<path d="M489.062 186.016V190.257H486.556C483.56 190.257 482.438 188.949 482.394 186.73C480.869 188.982 478.494 190.521 474.92 190.521C469.952 190.521 466.498 188.037 466.498 183.752C466.498 178.962 469.854 176.347 476.217 176.347H481.904V174.951C481.904 172.38 480.074 170.798 476.936 170.798C474.114 170.798 472.24 172.149 471.88 174.182H467.086C467.62 169.71 471.379 166.865 477.165 166.865C482.95 166.865 486.698 169.798 486.698 175.259V184.51C486.698 185.686 487.101 186.005 488.125 186.005H489.062V186.016ZM481.904 179.962H475.999C473.046 179.962 471.39 181.093 471.39 183.434C471.39 185.378 473.003 186.73 475.596 186.73C479.54 186.73 481.904 184.335 481.904 180.863V179.962Z" fill="black"/>
<path d="M499.586 190.258L490.902 167.14H496.099L502.637 185.017L509.13 167.14H514.229L505.502 190.258H499.597H499.586Z" fill="black"/>
<path d="M538.925 186.016V190.257H536.42C533.423 190.257 532.301 188.949 532.258 186.73C530.732 188.982 528.357 190.521 524.783 190.521C519.815 190.521 516.361 188.037 516.361 183.752C516.361 178.962 519.717 176.347 526.08 176.347H531.767V174.951C531.767 172.38 529.937 170.798 526.799 170.798C523.977 170.798 522.103 172.149 521.744 174.182H516.95C517.484 169.71 521.242 166.865 527.028 166.865C532.813 166.865 536.561 169.798 536.561 175.259V184.51C536.561 185.686 536.964 186.005 537.988 186.005H538.925V186.016ZM531.756 179.962H525.851C522.899 179.962 521.242 181.093 521.242 183.434C521.242 185.378 522.855 186.73 525.448 186.73C529.392 186.73 531.756 184.335 531.756 180.863V179.962Z" fill="black"/>
<path d="M561.06 185.973V190.259H542.439V185.973H549.358V163.251L542.439 165.559V161.251L548.356 158.966H554.195V185.984H561.07L561.06 185.973Z" fill="black"/>
<path d="M586.851 186.016V190.257H584.345C581.349 190.257 580.227 188.949 580.183 186.73C578.658 188.982 576.283 190.521 572.709 190.521C567.741 190.521 564.287 188.037 564.287 183.752C564.287 178.962 567.643 176.347 574.006 176.347H579.693V174.951C579.693 172.38 577.863 170.798 574.725 170.798C571.903 170.798 570.029 172.149 569.669 174.182H564.875C565.409 169.71 569.168 166.865 574.954 166.865C580.739 166.865 584.487 169.798 584.487 175.259V184.51C584.487 185.686 584.89 186.005 585.914 186.005H586.851V186.016ZM579.693 179.962H573.788C570.835 179.962 569.179 181.093 569.179 183.434C569.179 185.378 570.792 186.73 573.385 186.73C577.329 186.73 579.693 184.335 579.693 180.863V179.962Z" fill="black"/>
<path d="M612.738 177.072V190.257H607.857V177.522C607.857 173.413 606.113 171.161 602.66 171.161C599.031 171.161 596.841 173.82 596.841 178.292V190.257H592.004V167.139H596.209L596.743 170.161C598.127 168.359 600.284 166.865 603.771 166.865C608.652 166.865 612.727 169.523 612.727 177.072H612.738Z" fill="black"/>
<path d="M618.679 178.742C618.679 171.611 623.2 166.865 630.097 166.865C635.959 166.865 639.631 170.161 640.524 175.402H635.469C634.837 172.688 632.919 171.018 630.01 171.018C626.164 171.018 623.604 174.226 623.604 178.742C623.604 183.258 626.153 186.367 630.01 186.367C632.875 186.367 634.847 184.653 635.425 181.983H640.524C639.674 187.224 635.774 190.521 629.955 190.521C623.059 190.521 618.668 185.961 618.668 178.742H618.679Z" fill="black"/>
<path d="M667.293 177.072V190.257H662.412V177.478C662.412 173.501 660.669 171.161 657.085 171.161C653.5 171.161 651.179 173.874 651.179 178.247V190.257H646.342V158.657H651.179V170.084C652.748 168.095 655.123 166.875 658.207 166.875C663.578 166.875 667.293 170.084 667.293 177.083V177.072Z" fill="black"/>
<path d="M678.065 179.831V180.062C678.196 183.984 680.615 186.566 684.374 186.566C687.239 186.566 689.429 185.072 690.061 182.501H694.898C694.092 187.061 690.29 190.533 684.646 190.533C677.488 190.533 673.01 185.841 673.01 178.754C673.01 171.667 677.488 166.877 684.156 166.877C690.824 166.877 695.171 171.118 695.302 177.897C695.302 178.392 695.258 179.161 695.171 179.842H678.065V179.831ZM678.24 176.172H690.279C689.876 172.744 687.544 170.799 684.188 170.799C681.192 170.799 678.588 172.876 678.229 176.172H678.24Z" fill="black"/>
</g>
<defs>
<clipPath id="clip0_2939_262">
<rect width="308.25" height="56.2891" fill="black" transform="translate(387.051 134.242)"/>
</clipPath>
</defs>
</svg>
