<svg width="234" height="78" viewBox="0 0 234 78" fill="none" xmlns="http://www.w3.org/2000/svg">
<path d="M104.105 60.5906V54.3455H106.605C107.064 54.3455 107.447 54.4135 107.754 54.5498C108.061 54.686 108.293 54.875 108.447 55.117C108.601 55.3567 108.678 55.6333 108.678 55.9463C108.678 56.1903 108.631 56.4048 108.532 56.5898C108.435 56.7728 108.3 56.9232 108.129 57.0411C107.961 57.157 107.768 57.2394 107.551 57.2881V57.3491C107.788 57.3593 108.01 57.4264 108.219 57.5503C108.427 57.6744 108.598 57.8482 108.728 58.0718C108.857 58.2934 108.922 58.5577 108.922 58.8646C108.922 59.1961 108.84 59.4919 108.675 59.752C108.513 60.0101 108.273 60.2146 107.953 60.365C107.634 60.5155 107.24 60.5906 106.773 60.5906H104.105ZM105.426 59.5111H106.501C106.87 59.5111 107.139 59.4409 107.307 59.3007C107.475 59.1584 107.56 58.9694 107.56 58.7335C107.56 58.5608 107.518 58.4082 107.435 58.2761C107.351 58.144 107.233 58.0404 107.078 57.9651C106.926 57.8899 106.744 57.8523 106.532 57.8523H105.426V59.5111ZM105.426 56.9587H106.404C106.585 56.9587 106.745 56.9272 106.885 56.8643C107.027 56.7992 107.14 56.7076 107.222 56.5898C107.305 56.4719 107.347 56.3305 107.347 56.1659C107.347 55.9403 107.267 55.7582 107.105 55.6201C106.947 55.4819 106.72 55.4128 106.429 55.4128H105.426V56.9587ZM111.133 54.3455H112.613L114.036 57.0351H114.097L115.522 54.3455H117L114.722 58.3829V60.5906H113.411V58.3829L111.133 54.3455Z" fill="black"/>
<path d="M42.7158 42.7446L29.391 42.7446L29.391 36.9628L42.7158 36.9628L42.7158 42.7446Z" fill="black"/>
<path d="M29.3926 30.1902L29.3926 17.6353L35.529 17.6353L35.529 30.1902L29.3926 30.1902Z" fill="black"/>
<path d="M42.7158 30.1902L29.391 30.1902L29.391 24.4083L42.7158 24.4083L42.7158 30.1902Z" fill="black"/>
<path d="M12.8481 42.7446H26.173V36.9628H12.8481V42.7446Z" fill="black"/>
<path d="M12.8481 30.1899H26.173V24.4081H12.8481V30.1899Z" fill="black"/>
<path d="M12.8481 36.9622L12.8481 24.4073L6.71171 24.4073L6.71171 36.9622L12.8481 36.9622Z" fill="black"/>
<path d="M42.7158 36.9631L42.7158 24.4083L48.8523 24.4083L48.8523 36.9631L42.7158 36.9631Z" fill="black"/>
<path d="M72.3981 39.3083C80.4174 39.3083 81.2334 35.6841 81.2334 34.0367V33.9928H75.8949C75.7784 34.4541 75.2655 36.1673 71.7454 36.1673H71.6755C68.6682 36.1673 67.6891 34.5859 67.6891 33.0044V32.8506C67.6891 31.357 68.6449 29.9293 71.6755 29.9293H71.7454C75.3121 29.9293 75.7784 31.5986 75.8949 32.0599H81.2334V31.994C81.2334 30.4125 80.2543 26.8323 72.4215 26.8323H71.0927C63.9359 26.8323 62.374 30.149 62.374 32.7847V33.224C62.374 35.8598 63.9592 39.3083 71.116 39.3083H72.3981Z" fill="black"/>
<path d="M92.8336 39.3083C100.573 39.3083 101.809 35.9257 101.809 33.2021V32.8067C101.809 30.127 100.48 26.8323 92.8336 26.8323H91.1784C83.9051 26.8323 82.1801 30.0831 82.1801 32.8067V33.2021C82.1801 35.9257 83.9284 39.3083 91.2018 39.3083H92.8336ZM92.0177 36.1234C88.4743 36.1234 87.4952 34.4541 87.4952 33.0703V32.9605C87.4952 31.4668 88.4743 29.9732 92.0177 29.9732H92.041C95.5378 29.9732 96.5402 31.4888 96.5402 32.9605V33.0703C96.5402 34.4541 95.5611 36.1234 92.0177 36.1234Z" fill="black"/>
<path d="M117.189 33.0922C117.189 34.6078 115.557 36.1454 112.48 36.1454H112.363C109.309 36.1454 108.144 34.52 108.144 33.0922V33.0044C108.144 31.4668 109.053 29.9732 112.316 29.9732H112.433C115.51 29.9732 117.189 31.4668 117.189 33.0044V33.0922ZM117.189 22.637V28.7432C116.606 28.26 114.811 26.8762 110.894 26.8762H110.521C104.903 26.8762 102.828 29.5998 102.828 32.7628V33.1801C102.828 36.4968 105.16 39.2644 110.731 39.2644H111.034C115.067 39.2644 116.885 37.639 117.235 37.1777V38.9788H122.41V22.637H117.189Z" fill="black"/>
<path d="M133.418 29.5779C136.052 29.5779 137.264 30.3247 137.614 31.5767H129.222C129.618 30.3247 130.784 29.5779 133.395 29.5779H133.418ZM142.789 34.8055H137.661C137.591 35.091 137.031 36.3211 133.581 36.3211H133.558C130.69 36.3211 129.431 35.3986 129.128 34.0148H142.859V33.2021C142.859 30.3247 141.507 26.8323 134.141 26.8323H132.718C125.935 26.8323 124.023 29.7536 124.023 32.7847V33.268C124.023 36.365 126.168 39.3083 132.858 39.3083H134.187C141.67 39.3083 142.789 36.4309 142.789 34.8275V34.8055Z" fill="black"/>
<path d="M145.38 22.637V38.9788H150.182C150.252 38.4297 150.346 37.7708 150.509 37.3095C150.998 37.7708 153.12 39.2644 156.71 39.2644H157.106C162.678 39.2644 164.939 36.4089 164.939 33.224V32.8067C164.939 29.5779 162.957 26.8762 157.269 26.8762H156.85C153.096 26.8762 151.138 28.3918 150.579 28.8091V22.637H145.38ZM150.579 32.9824C150.579 31.4668 152.001 29.9293 155.101 29.9293H155.241C158.621 29.9293 159.624 31.4668 159.624 32.9824V33.0703C159.624 34.498 158.621 36.1454 155.241 36.1454H155.101C152.047 36.1454 150.579 34.5419 150.579 33.0703V32.9824Z" fill="black"/>
<path d="M177.716 33.7292C177.716 35.135 175.921 36.5407 173.147 36.5407C171.376 36.5407 170.863 35.8379 170.863 35.2009V35.1789C170.863 34.498 171.422 34.2783 172.751 34.0807L177.716 33.3558V33.7292ZM177.856 37.3534C178.043 38.4736 178.835 38.9788 179.838 38.9788H184.057V35.772H183.381C182.845 35.772 182.728 35.5303 182.728 35.1789V30.6541C182.728 28.9409 182.262 26.8323 174.989 26.8323H173.707C166.713 26.8323 166.224 29.2704 166.224 30.8299V30.8738H171.049C171.119 30.4784 171.236 29.5559 174.336 29.5559H174.453C177.507 29.5559 177.716 30.0831 177.716 30.5224C177.716 30.8958 177.507 31.0715 176.924 31.1374L171.189 31.6426C167.436 31.972 165.921 33.0044 165.921 35.1789V35.3327C165.921 37.3534 167.529 39.1985 171.749 39.1985H172.052C175.735 39.1985 177.32 37.9904 177.856 37.3534Z" fill="black"/>
<path d="M193.611 39.3083C200.534 39.3083 201.886 37.4193 201.886 35.2448V35.113C201.886 32.7408 200.674 31.5108 194.893 31.401L192.655 31.357C190.487 31.2911 190.021 30.9397 190.021 30.4125V30.3686C190.021 29.7755 190.51 29.49 193.004 29.49H193.028C195.825 29.49 196.058 30.2588 196.128 30.6981H201.42V30.5443C201.42 28.6993 199.905 26.8323 193.564 26.8323H192.631C185.731 26.8323 184.705 28.6993 184.705 30.5224V30.6541C184.705 32.3894 186.011 34.2344 191.466 34.3442L193.704 34.3882C196.152 34.4541 196.455 34.8055 196.455 35.4205V35.4644C196.455 36.0355 196.105 36.5847 193.214 36.5847H193.168C190.137 36.5847 189.951 35.4205 189.951 34.9812H184.589V35.113C184.589 36.6286 185.335 39.3083 192.655 39.3083H193.611Z" fill="black"/>
<path d="M212.267 29.5779C214.901 29.5779 216.113 30.3247 216.463 31.5767H208.071C208.467 30.3247 209.633 29.5779 212.244 29.5779H212.267ZM221.638 34.8055H216.51C216.44 35.091 215.88 36.3211 212.43 36.3211H212.407C209.54 36.3211 208.281 35.3986 207.978 34.0148H221.708V33.2021C221.708 30.3247 220.356 26.8323 212.99 26.8323H211.568C204.784 26.8323 202.872 29.7536 202.872 32.7847V33.268C202.872 36.365 205.017 39.3083 211.708 39.3083H213.036C220.519 39.3083 221.638 36.4309 221.638 34.8275V34.8055Z" fill="black"/>
<g clip-path="url(#clip0_2563_145)">
<path d="M138.92 53.5987C139.236 53.0556 140.021 53.0556 140.333 53.5987L143.693 59.3866C144.009 59.9296 143.613 60.6058 142.984 60.6058H136.265C135.636 60.6058 135.244 59.9296 135.557 59.3866L138.92 53.5987Z" fill="black"/>
<path d="M136.89 49.7449C137.196 49.2054 137.196 48.5397 136.89 47.9966L134.135 43.1512C133.826 42.6081 133.055 42.6081 132.745 43.1512L123.525 59.3832C123.216 59.9263 123.601 60.606 124.22 60.606H129.726C130.341 60.606 130.908 60.2731 131.213 59.7336L136.887 49.7449H136.89Z" fill="black"/>
<path d="M155.946 59.2532V60.6056H155.147C154.192 60.6056 153.834 60.1887 153.82 59.4809C153.334 60.1992 152.577 60.6897 151.437 60.6897C149.853 60.6897 148.751 59.8979 148.751 58.5315C148.751 57.0039 149.822 56.1701 151.85 56.1701H153.664V55.7251C153.664 54.9053 153.08 54.4008 152.08 54.4008C151.18 54.4008 150.582 54.8317 150.468 55.4799H148.939C149.109 54.0539 150.308 53.1465 152.153 53.1465C153.997 53.1465 155.193 54.0819 155.193 55.8232V58.7732C155.193 59.1481 155.321 59.2497 155.648 59.2497H155.946V59.2532ZM153.664 57.3227H151.781C150.839 57.3227 150.311 57.6836 150.311 58.4299C150.311 59.05 150.826 59.4809 151.652 59.4809C152.91 59.4809 153.664 58.7172 153.664 57.61V57.3227Z" fill="black"/>
<path d="M159.302 60.6056L156.533 53.2341H158.19L160.275 58.9344L162.345 53.2341H163.971L161.189 60.6056H159.306H159.302Z" fill="black"/>
<path d="M171.845 59.2532V60.6056H171.046C170.091 60.6056 169.733 60.1887 169.719 59.4809C169.233 60.1992 168.475 60.6897 167.336 60.6897C165.752 60.6897 164.65 59.8979 164.65 58.5315C164.65 57.0039 165.72 56.1701 167.749 56.1701H169.563V55.7251C169.563 54.9053 168.979 54.4008 167.979 54.4008C167.079 54.4008 166.481 54.8317 166.367 55.4799H164.838C165.008 54.0539 166.207 53.1465 168.052 53.1465C169.896 53.1465 171.091 54.0819 171.091 55.8232V58.7732C171.091 59.1481 171.22 59.2497 171.547 59.2497H171.845V59.2532ZM169.559 57.3227H167.676C166.735 57.3227 166.207 57.6836 166.207 58.4299C166.207 59.05 166.721 59.4809 167.548 59.4809C168.805 59.4809 169.559 58.7172 169.559 57.61V57.3227Z" fill="black"/>
<path d="M178.904 59.2395V60.6059H172.967V59.2395H175.173V51.9941L172.967 52.7298V51.3564L174.853 50.6277H176.715V59.243H178.908L178.904 59.2395Z" fill="black"/>
<path d="M187.128 59.2532V60.6056H186.329C185.373 60.6056 185.015 60.1887 185.001 59.4809C184.515 60.1992 183.758 60.6897 182.618 60.6897C181.034 60.6897 179.933 59.8979 179.933 58.5315C179.933 57.0039 181.003 56.1701 183.032 56.1701H184.845V55.7251C184.845 54.9053 184.261 54.4008 183.261 54.4008C182.361 54.4008 181.764 54.8317 181.649 55.4799H180.12C180.29 54.0539 181.489 53.1465 183.334 53.1465C185.179 53.1465 186.374 54.0819 186.374 55.8232V58.7732C186.374 59.1481 186.502 59.2497 186.829 59.2497H187.128V59.2532ZM184.845 57.3227H182.962C182.021 57.3227 181.493 57.6836 181.493 58.4299C181.493 59.05 182.007 59.4809 182.834 59.4809C184.091 59.4809 184.845 58.7172 184.845 57.61V57.3227Z" fill="black"/>
<path d="M195.383 56.4013V60.6056H193.826V56.5449C193.826 55.2346 193.271 54.5164 192.169 54.5164C191.012 54.5164 190.314 55.3642 190.314 56.7902V60.6056H188.771V53.2341H190.113L190.283 54.1976C190.724 53.623 191.412 53.1465 192.524 53.1465C194.08 53.1465 195.379 53.9943 195.379 56.4013H195.383Z" fill="black"/>
<path d="M197.276 56.9338C197.276 54.66 198.718 53.1465 200.917 53.1465C202.786 53.1465 203.957 54.1976 204.242 55.8688H202.63C202.428 55.0034 201.817 54.4708 200.889 54.4708C199.663 54.4708 198.846 55.4939 198.846 56.9338C198.846 58.3738 199.659 59.3653 200.889 59.3653C201.803 59.3653 202.432 58.8188 202.616 57.9674H204.242C203.971 59.6386 202.727 60.6897 200.872 60.6897C198.673 60.6897 197.272 59.2357 197.272 56.9338H197.276Z" fill="black"/>
<path d="M212.777 56.4013V60.6056H211.221V56.5309C211.221 55.2626 210.665 54.5164 209.522 54.5164C208.379 54.5164 207.639 55.3817 207.639 56.7762V60.6056H206.097V50.5293H207.639V54.173C208.139 53.5389 208.897 53.15 209.88 53.15C211.593 53.15 212.777 54.173 212.777 56.4048V56.4013Z" fill="black"/>
<path d="M216.214 57.2809V57.3544C216.255 58.6052 217.027 59.4285 218.225 59.4285C219.139 59.4285 219.837 58.9521 220.039 58.1322H221.581C221.324 59.5862 220.112 60.6933 218.312 60.6933C216.029 60.6933 214.602 59.1973 214.602 56.9375C214.602 54.6777 216.029 53.1501 218.156 53.1501C220.282 53.1501 221.668 54.5025 221.71 56.6642C221.71 56.8219 221.696 57.0671 221.668 57.2844H216.214V57.2809ZM216.269 56.1142H220.108C219.98 55.0211 219.236 54.4009 218.166 54.4009C217.211 54.4009 216.38 55.0631 216.266 56.1142H216.269Z" fill="black"/>
</g>
<path d="M226.678 53.2545L225.289 50.1182H225.851L226.823 52.4193L227.794 50.1182H228.357L226.968 53.2545H226.678ZM225.187 53.2545V50.1182H225.732V53.2545H225.187ZM227.914 53.2545V50.1182H228.459V53.2545H227.914ZM223.141 53.2545V50.3909H223.687V53.2545H223.141ZM222.187 50.5954V50.1182H224.641V50.5954H222.187Z" fill="black"/>
<defs>
<clipPath id="clip0_2563_145">
<rect width="98.291" height="17.9488" fill="white" transform="translate(123.417 42.7446)"/>
</clipPath>
</defs>
</svg>
